# xmcd
#
# Track frame offsets:
#	150
#	22482
#	45915
#	77092
#	97687
#	134392
#	161105
#	189567
#	224037
#	247932
#	260385
#	301647
#	317845
#	340702
#
# Disc length: 4741
#
# Revision: 1
# Processed by: cddbd v1.5.1PL0 Copyright (c) Steve Scherf et al.
# Submitted via: EZCDDA 4.3.3.2
# Normalized: r0:DSETVAR1,TDELIM( - )
#
DISCID=ba12830e
DTITLE=Various Artist - Blues - Forever Gold Disk_1
DYEAR=1900
DGENRE=
TTITLE0=B.B. King - The Thrill Is Gone
TTITLE1=Tony Joe White - Good in Blues
TTITLE2=Junior Wells - I`ll Take Care of Yoy
TTITLE3=Dana Gilespie - Where Blue Begins
TTITLE4=Luther Alison - Lightning Bolt
TTITLE5=Blues Company - Silent Nite
TTITLE6=Johnny Winter - Life is Hard
TTITLE7=Buddy Guy - Black Night
TTITLE8=Stan Webb`s Chicken Shack - Don`t worry about A Thing
TTITLE9=James Brown - It`s A Man`s Man`s Man`s World
TTITLE10=Stevie Ray Vaughan And Double Trouble - Tin Pin Alley
TTITLE11=Dr John - I Like Ki Yoka
TTITLE12=Long John Hunter - Both Ends of The Road
TTITLE13=Robben Ford - I Can`t Stand The Rain
EXTD=
EXTT0=
EXTT1=
EXTT2=
EXTT3=
EXTT4=
EXTT5=
EXTT6=
EXTT7=
EXTT8=
EXTT9=
EXTT10=
EXTT11=
EXTT12=
EXTT13=
PLAYORDER=
